<svg id="Lager_1" data-name="Lager 1" xmlns="http://www.w3.org/2000/svg" viewBox="0 0 415.23 258.49"><defs><style>.cls-1{font-size:48px;fill:#fff;font-family:MyriadPro-Regular, Myriad Pro;}</style></defs><path d="M298.34,401c1.32-.59,2.57-1,3.79.3.24.25.95,0,1.11,0l-2.92-8.79c-1.36,2.06-4.68,2.55-6,1-.18-.21.08-.8.14-1.21l1.7-.3,2.47-1.59.59-.16,2.52-.28c-3.43-4.86-6.78-9.61-10.14-14.39l-.75,2.65-.32.15c-1.08-1.75-3.4-2.75-4.95-1.86l2.17,1.44v1.23a9.34,9.34,0,0,0-2.06.56c-1.43.76-2.34.43-2.84-1.09l-1.14-1.11,1.9-1.52-2.13-.94c.73-.76,2.7-.9,1.36-2.69-1.66-2.21-2-2.32-3.34-1.12l1.29.18c.19,1.34.33,2.38.48,3.42h-1.95l2.15,2.43-1.95.49c-1.41-1.82-1.41-1.82-3.87-1.25,1.54,2.43,3,4.78,4.5,7.13l0,0c-3.43.83-3.44.83-5.32-2-.83-1.27-1.63-2.56-2.49-3.92l2.23-1.58-.19-.64c-1.29.43-3.06.48-3.81,1.37-2.57,3.07-6,4.52-9.52,6-2.09.87-4.21,1.63-6.3,2.49a15,15,0,0,0-1.91,1.19l5.53,1.35-.22-.51a15.75,15.75,0,0,1,3.14-1.37c.49-.11,1.16.65,1.74,1-.82.91-1.65,1.81-2.75,3l1.31,2.05c-3.06,3.19-2.27,6.81-1.36,10.93l7.25-1.47.2.46a30.75,30.75,0,0,1-4.48,2.4c-6.88,2.34-13.77,4.64-20.73,6.68-2,.59-1.91,2.11-2.62,3.44-3.58.54-7.19,1.2-10.84,1.61-1.86.21-3.77-.07-5.66,0s-3.69.22-5.54.32-4,.12-6,.27c-2.83.23-5.67.45-8.48.87A4.72,4.72,0,0,0,201.2,419c-3.19,3.29-6.29,6.67-9.48,10-6.11,6.33-13.88,6.19-21.79,5.53A6.17,6.17,0,0,0,167,435q-3.79,1.71-7.43,3.71c-9.33,5.13-19.38,8.26-29.72,10.49-1.82.4-1.95,1.58-2.44,3.09-3.94,0-7.93,0-11.92,0-1.81,0-3.61.31-5.42.34-3.19.06-6.39.15-9.58,0-3.83-.2-7.64-.88-11.47-.94-4-.06-8.1.31-12.14.6-.62.05-1.2.69-1.56.53-3.16-1.56-6.27-3.2-9.48-4.66s-6.45-2.64-9.63-4.06c-.8-.36-1.33-1.27-2.08-1.79-3.23-2.24-6.6-4.28-9.7-6.69a21.57,21.57,0,0,1-4-4.66c-.35-.49-.05-1.45-.05-2.53l4.19,2.27.11-.19-5.55-5.87c.54-.32.7-.47.76-.44,3,1.75,6,3.53,9,5.26a3.89,3.89,0,0,0,1.44.21c1.57.16,3.15.23,4.7.5,2,.35,4.06.88,6.1,1.28.22,0,.52-.34,1.17-.78-2.93-1-5.51-1.9-8-2.85-4.13-1.53-8.09-3.36-10.93-6.93-2.12-2.67-2.11-3.25-.27-6.16,2.09-3.3,3.92-6.79,6.21-9.93,4.88-6.7,11.61-11.2,18.82-15,2.63-1.39,5.43-2.47,8.1-3.8q13.2-6.56,26.35-13.2c.11-.06.16-.23.41-.59-.38-.54-.85-1.15-1.26-1.8-1.21-1.88-1.93-3.78-.07-5.72.24-.26.35-.64.58-.92,1.48-1.78,2.67-3.6,1.78-6.1a5.36,5.36,0,0,1,.2-2.05c1.1.22,2,.48,2.87.57,3.24.32,4.78-1.94,6.23-4.24a16.36,16.36,0,0,0,1.19-2.58,4,4,0,0,1,3.61-2.68c1.73-.13,3.21-.51,3.5-2.86.17-1.29,1.29-2.59,2.25-3.63,2.47-2.67,5.2-5.11,7.62-7.82a5.68,5.68,0,0,1,4.79-2c2.13,0,4.27-.28,6.4-.44l.38-.87a59,59,0,0,0-4.2-4.59c-3-2.73-6.28-5.21-9.28-8-2.23-2-2.16-6.69.16-8.63a4.31,4.31,0,0,1,3.46-.75,28.77,28.77,0,0,1,6.31,3,10.85,10.85,0,0,1,3.27,3.2c1.75,2.66,4.24,3.2,7.13,3.18,1.74,0,3.49.2,5.23.34,6.14.5,10.67-2.66,14.83-6.61a2.15,2.15,0,0,0,.46-1.56c-.36-3.4-.84-6.79-1.22-10.19-1.19-10.73.88-21.05,4.42-31.09,1.86-5.3,4.66-7.22,10.21-6.39,6,.89,11.9,2.71,17.84,4.13,2.51.6,5,1.23,8,2-.43-2.77-.81-4.95-1.1-7.14-.78-5.74-1.83-11.48-2.21-17.25-.55-8.3-.84-16.66,1.58-24.79,1.07-3.59,2.43-7,5.81-9.77-.79,2.14-1.52,3.89-2.08,5.7-2.37,7.69-2,15.58-1.48,23.45.29,4.65.87,9.28,1.46,13.9.46,3.61.56,3.59,3.23,5.85l-2.19.21c.11.62.31,1.7.43,2.39a14.46,14.46,0,0,1,3.26-2c1.37-.43,1.69-.94,1.41-2.32-.89-4.41-1.66-8.84-2.42-13.28a7.85,7.85,0,0,1,.2-3.71c.48,2.6.92,5.21,1.45,7.8.72,3.48,1.15,7.09,2.4,10.38.77,2,2.83,3.56,4.31,5.31l.89-.46L224,256l-.51.11c.16-.44.51-.91.44-1.3-1.14-6.14-2.78-12.23-3.43-18.43-.84-8.1-.9-16.22,2-24.16,1.74-4.76,4-8.91,8.31-11.64a11.23,11.23,0,0,1,4.83-1.66,26.58,26.58,0,0,1,12,1.57,1.62,1.62,0,0,0,.63.18c4.35-.35,7,2.09,9.06,5.78,0-.22,0-.1,0-.1l-1.68.13c2.68,2.73,6.07,4.5,7.36,8.13l-.86,1.68h1.72c.08.48,0,1.2.29,1.58,1.75,2.16,3.61,4.23,5.42,6.34.88,1,1.64,2.18,2.61,3.12s2.22,1.42,3.09,2.36c1.73,1.87,3.34,3.86,4.9,5.88.82,1,1.53,1.91,3.06,1.36.41-.15,1,.19,1.49.31l.33.67-1.5.59c.45,1,.72,1.63,1.24,2.82a32.27,32.27,0,0,1,3.23-1.34c.41-.12,1,.27,1.47.42V241l-4.19,1.91c2.56.62,4.46.88,5.74,2.55l4,.58c-.12.43-.25.86-.32,1.07l4.56,2.16L301,248c-.93-1.12-1.78-2.15-2.62-3.18,2.92,2.51,6.39,1.58,9.72,1.6a23.62,23.62,0,0,1,11.58,2.66,30.73,30.73,0,0,0,10,3.37c3.7.61,7.21,2.88,10.59,4.79,3,1.69,3.7,1.93,6.33-.34,4.35-3.76,8.47-7.82,13-11.31a26.34,26.34,0,0,1,8.37-4c3.5-1.05,9.11,1.36,10.74,4.64a13,13,0,0,1,.9,6.28c0,.93-1.39,2-2.36,2.64-4.32,3-8.57,6.11-13.15,8.64-2.81,1.55-3.95,3.52-4.57,6.51-.49,2.34.22,3.33,2.23,3.69,2.29.4,4.63.47,6.91.91a5.78,5.78,0,0,1,2.31,1.47c1.41,1.15,2.67,2.49,4.13,3.56,2.05,1.49,4.23,2.8,6,4,.65-.28,1.28-.79,1.84-.73a112.63,112.63,0,0,1,11.91,1.49c7.25,1.53,14.68,2.75,21.55,5.36,5.37,2.05,10.73,2.2,16.16,2.94a16.93,16.93,0,0,1,5.2,1.88c7,3.55,11.41,9.81,15.84,16a3,3,0,0,1-.16,4.14,8.72,8.72,0,0,1-1.74,1.65c-2.47,1.37-2.94,3.51-2.78,6.1.66,10.68-.85,21.23-1.88,31.82-.69,7-.9,14.12-1.72,21.13a88.09,88.09,0,0,1-2.82,13.83,8.12,8.12,0,0,1-3.58,4.12c-6.93,4.1-12.41,9.81-18.1,15.36-2.94,2.87-6.76,4.86-9.63,7.79-4.47,4.56-10.16,6.95-15.53,10-3.66,2.07-7,4.68-10.5,7.08-5.67,3.9-11.57,7.33-18.26,9.22-2.36.66-1.91,2.78-2.25,4.46-3.13,2-6.28,3.88-9.36,5.9-6.62,4.36-13.71,5.09-20.69,1.6a39.47,39.47,0,0,1-13.74-10.82c-4.05-5.19-8.28-10.23-12.21-15.5-2-2.64-3.35-5.72-5.17-8.5-1.07-1.63-2.49-3-3.71-4.56A11.09,11.09,0,0,1,299,414h1.66l-3.12-4.85c.92-3.24-2.92-4.31-3.89-7.06l3.77,1.12.71-2.19ZM270,340.76l-.91.51c.34.85.46,1.93,1.07,2.5,1.68,1.57,3.58,2.84,4.45,5.2a13.85,13.85,0,0,0,2.55,3.46c2.75,3.42,5.66,6.73,8.27,10.26a103.92,103.92,0,0,1,6.44,9.88c1.74,3,4.65,5.2,5.9,8.66.69,1.91,2.5,3.4,3.71,5.14,2,2.9,3.87,5.91,6,8.74.63.85,1.88,1.25,2.84,1.85-.09-1.13-.17-2.26-.27-3.39,0-.07-.07-.13-.11-.19-3.08-4.76-5.94-9.67-9.29-14.23-6.55-8.92-13.33-17.67-20.1-26.43-2.16-2.8-4.55-5.43-6.89-8.1C272.44,343.29,271.18,342,270,340.76Zm-56.22,53.62v1.06c1.08.1,2.17.26,3.25.27,2.22,0,4.44,0,6.65-.13,1.32-.11,2.61-.84,3.92-.86,1.91,0,2.63-1.06,3.22-3C224.74,391.61,219.25,393,213.74,394.38ZM90.76,435c1.42-.26,2.22-.46,3-.53s1.74,0,2.6,0v-.9H74.62l-.06.56c1.15.11,2.31.29,3.47.29.7,0,1.41-.4,2.1-.38,3.11.1,6.23.26,9.33.49A3.13,3.13,0,0,1,90.76,435ZM289.13,374l.66-.43c-.76-1.22-1.52-2.45-2.27-3.68l-.71.45C287.59,371.59,288.36,372.81,289.13,374Z" transform="translate(-39.19 -198.77)"/><path d="M280.2,383.74l4.67,8.15c-1.8,1-3.17,1.34-4.21-1a43.11,43.11,0,0,0-2.94-4.84l2.51-2.38Z" transform="translate(-39.19 -198.77)"/><path d="M299.26,390.31l-.59.16c-1.38-.44-2.76-.91-4.15-1.31a2.83,2.83,0,0,0-1,.08,10.61,10.61,0,0,1-.57-1.76,4.48,4.48,0,0,1,.2-1.38h.21c.13.34.22.7.38,1,.72,1.48,1.91,1.16,2.89.5.27-.19.14-1.44-.19-2-.83-1.3-1.67-.69-2.37.26,0-.13,0-.2,0-.21,0-1.31-.11-2.56-1.78-2.83l3.48-.69C296.87,384.81,298.06,387.56,299.26,390.31Z" transform="translate(-39.19 -198.77)"/><path d="M285.53,392.92l4.43,7.53c-1.95.66-4.45-1.13-5.82-4.28A2.22,2.22,0,0,1,285.53,392.92Z" transform="translate(-39.19 -198.77)"/><path d="M295.47,409.71a7.36,7.36,0,0,1-6-6.11c-.12-.68.37-1.47.73-2.77Z" transform="translate(-39.19 -198.77)"/><path d="M279.57,377.86l1.95-.49a1.36,1.36,0,0,1,.24.24l1.14,1.11c.06,1.62-.66,2.08-2,1.2-1.07-.7-2-1.56-3-2.35l.36-.49Z" transform="translate(-39.19 -198.77)"/><path d="M298.34,401l-.22,0-2-2.2.43-.56,1.35.2c.05,0,.1.07.17.18l1.67.36Z" transform="translate(-39.19 -198.77)"/><path d="M288.75,381.91,294,385.7s0,.08,0,.21l-.71.18h-.21a29.32,29.32,0,0,1-3.65-2.14C289,383.58,289,382.61,288.75,381.91Z" transform="translate(-39.19 -198.77)"/><path d="M296.2,392.06l-1.7.3c-1.72.28-2.4-.2-1.47-1.95a7,7,0,0,0,.37-1.23c.29.33.58.66.89,1C294.92,390.8,295.56,391.43,296.2,392.06Z" transform="translate(-39.19 -198.77)"/><path d="M298,398.64c-.07-.11-.12-.18-.17-.18l-.3-.63.3-.1Z" transform="translate(-39.19 -198.77)"/><path d="M290.89,378.29c2.29-.41,2.64,1.36,3.25,2.6L291,382l-2-2c-.21-.45-.43-.91-.64-1.37l2.25-.18Z" transform="translate(-39.19 -198.77)"/><text class="cls-1" transform="translate(147.17 124.91)">FREE RUN</text></svg>